<?xml version="1.0" encoding="UTF-8" standalone="no"?>
<!-- Created with Inkscape (http://www.inkscape.org/) -->
<svg
   xmlns:dc="http://purl.org/dc/elements/1.1/"
   xmlns:cc="http://web.resource.org/cc/"
   xmlns:rdf="http://www.w3.org/1999/02/22-rdf-syntax-ns#"
   xmlns:svg="http://www.w3.org/2000/svg"
   xmlns="http://www.w3.org/2000/svg"
   xmlns:sodipodi="http://inkscape.sourceforge.net/DTD/sodipodi-0.dtd"
   xmlns:inkscape="http://www.inkscape.org/namespaces/inkscape"
   width="210mm"
   height="297mm"
   id="svg2"
   sodipodi:version="0.32"
   inkscape:version="0.42"
   sodipodi:docbase="/home/blue_prawn/Documents/prog/ocaml/GFX/Chipmunk/Chipmunk-4.0.2/ocaml/local/rolling_moon"
   sodipodi:docname="level.1.svgz">
  <defs
     id="defs4" />
  <sodipodi:namedview
     id="base"
     pagecolor="#ffffff"
     bordercolor="#666666"
     borderopacity="1.0"
     inkscape:pageopacity="0.0"
     inkscape:pageshadow="2"
     inkscape:zoom="0.37512071"
     inkscape:cx="-1398.7792"
     inkscape:cy="231.28513"
     inkscape:document-units="px"
     inkscape:current-layer="layer1"
     inkscape:window-width="1271"
     inkscape:window-height="966"
     inkscape:window-x="0"
     inkscape:window-y="25"
     showgrid="true"
     inkscape:grid-points="true"
     gridtolerance="6.4000000px" />
  <metadata
     id="metadata7">
    <rdf:RDF>
      <cc:Work
         rdf:about="">
        <dc:format>image/svg+xml</dc:format>
        <dc:type
           rdf:resource="http://purl.org/dc/dcmitype/StillImage" />
      </cc:Work>
    </rdf:RDF>
  </metadata>
  <g
     inkscape:label="Calque 1"
     inkscape:groupmode="layer"
     id="layer1">
    <path
       style="fill:none;fill-opacity:0.75000000;fill-rule:evenodd;stroke:#0000f2;stroke-width:0.86600000;stroke-linecap:butt;stroke-linejoin:miter;stroke-miterlimit:4.0000000;stroke-dasharray:none;stroke-opacity:0.73333335"
       d="M -1535.0000,807.36218 L -1347.1875,808.12500 L -1347.5312,873.87500 L -1262.8750,874.81250 L -1262.5938,824.75000 L -1099.2188,824.81250 L -1099.3750,761.56250 L -913.12500,761.62500 L -913.31250,703.62500 L -1000.1875,703.84375 L -999.15625,646.03125 L -1172.5938,645.18750 L -1171.9062,571.34375 L -1023.4688,571.37500 L -1024.4375,442.37500 L -1140.0000,442.37500 L -1140.0000,312.37500 L -1235.0000,312.37500 L -1235.0000,142.37500 L -1114.5938,143.37500 L -1115.0000,232.87500 L -1065.0000,232.37500 L -1065.0000,298.37500 L -970.00000,298.37500 L -970.00000,387.37500 L -910.06250,387.37500 L -910.15625,527.15625 L -870.03125,527.03125 L -870.00000,572.75000 L -804.93750,572.43750 L -805.00000,707.37500 L -710.31250,707.18750 L -709.96875,742.31250 L -649.84375,742.06250 L -650.15625,807.37500 L -589.87500,807.25000 L -590.31250,912.65625 L -545.00000,912.62500 L -544.09375,967.56250 L -435.00000,967.68750 L -434.56250,1012.4375 L -274.34375,1012.7188 L -275.06250,707.71875 L -229.68750,752.84375 L -229.31250,862.68750 L -94.687500,862.59375 L -95.000000,682.37500 L -55.000000,642.37500 L 105.00000,802.37500 L 205.00000,702.37500 L 260.00000,757.37500 L 356.00000,663.37500 L 255.00000,562.37500 L 315.00000,502.37500 L 335.00000,522.37500 L 370.00000,487.37500 L 460.00000,578.37500 L 555.00000,482.37500 L 555.00000,372.37500 L 440.00000,372.37500 L 440.00000,307.37500 L 360.00000,307.37500 L 360.00000,252.37500 L 570.00000,252.37500 L 570.00000,172.37500 L 415.00000,172.37500 L 415.00000,122.37500 L 295.00000,122.37500 L 295.00000,-27.625000 L 110.00000,-27.625000 L 110.00000,17.375000 L 20.000000,17.375000 L 20.000000,-2.6250000 L -85.000000,-2.6250000 L -85.000000,32.375000 L -105.00000,32.375000 L -105.00000,-137.62500 L 60.000000,-137.62500 L 60.000000,-82.625000 L 165.00000,-82.625000 L 165.00000,-127.62500 L 335.00000,-127.62500 L 335.00000,-157.62500 L 400.00000,-157.62500 L 400.00000,-102.62500 L 355.00000,-102.62500 L 355.00000,-12.625000 L 560.00000,-12.625000 L 560.00000,22.375000 L 650.00000,22.375000 L 650.00000,57.375000 L 805.00000,57.375000 L 805.00000,-92.625000 L 835.00000,-92.625000 L 835.00000,122.37500 L 675.09375,120.40625 L 675.00000,272.37500 L 635.00000,272.37500 L 635.00000,532.37500 L 720.00000,532.37500 L 720.00000,722.37500 L 920.00000,722.37500 L 920.00000,822.37500 L 1185.0000,822.37500 L 1185.0000,712.37500 L 1395.0000,712.37500 L 1395.0000,477.37500 L 1280.0000,477.37500 L 1280.0000,307.37500 L 970.00000,307.37500 L 970.00000,392.37500 L 800.00000,392.37500 L 800.00000,192.37500 L 835.00000,192.37500 L 835.00000,222.37500 L 885.00000,222.37500 L 885.00000,-92.625000 L 915.00000,-92.625000 L 915.00000,137.37500 L 1145.0000,137.37500 L 1145.0000,-97.625000 L 1090.0000,-97.625000 L 1090.0000,-167.62500 L 980.00000,-167.62500 L 980.00000,-357.62500 L 690.00000,-357.62500 L 690.00000,-212.62500 L 560.00000,-212.62500 L 560.00000,-137.62500 L 450.00000,-137.62500 L 450.00000,-237.62500 L 520.00000,-237.62500 L 520.00000,-322.62500 L 350.00000,-322.62500 L 350.00000,-217.62500 L 320.00000,-217.62500 L 320.00000,-287.62500 L 190.00000,-287.62500 L 190.00000,-252.62500 L 60.000000,-252.62500 L 59.718750,-187.12500 L -95.000000,-187.62500 L -95.000000,-252.62500 L -42.312500,-217.50000 L 12.875000,-303.56250 L -147.37500,-409.12500 L -262.68750,-249.03125 L -181.78125,-186.59375 L -145.00000,-242.62500 L -145.00000,32.375000 L -205.00000,32.375000 L -205.00000,-22.625000 L -295.21875,-22.156250 L -365.00000,-92.625000 L -430.00000,-27.625000 L -395.00000,7.3750000 L -440.00000,52.375000 L -365.00000,127.37500 L -330.00000,92.375000 L -295.03125,127.90625 L -270.00000,102.37500 L -210.00000,163.37500 L -170.00000,122.37500 L -110.00000,122.37500 L -110.00000,142.37500 L -30.000000,142.37500 L -30.000000,62.375000 L -10.000000,62.375000 L -10.000000,102.37500 L 105.00000,102.37500 L 105.00000,167.37500 L 10.000000,167.37500 L 10.000000,252.37500 L 175.00000,252.37500 L 175.00000,287.37500 L 280.00000,287.37500 L 280.00000,322.37500 L 106.00000,322.37500 L 104.50000,322.87500 L 55.000000,372.37500 L 180.00000,498.37500 L 245.00000,432.37500 L 260.00000,447.37500 L 70.000000,637.37500 L 10.000000,577.37500 L 45.000000,542.37500 L -20.000000,477.37500 L -230.00000,477.37500 L -230.00000,622.37500 L -355.00000,497.37500 L -405.00000,547.37500 L -375.00000,577.37500 L -435.00000,637.37500 L -435.00000,817.37500 L -489.75000,817.34375 L -489.28125,747.62500 L -539.84375,747.75000 L -539.78125,668.03125 L -619.78125,668.03125 L -619.53125,617.62500 L -715.21875,617.65625 L -714.59375,507.53125 L -770.06250,507.93750 L -769.87500,442.62500 L -809.21875,442.81250 L -810.00000,312.37500 L -860.00000,312.37500 L -860.00000,237.37500 L -905.00000,237.37500 L -905.00000,143.37500 L -1015.0000,142.37500 L -1015.0000,62.375000 L -1425.0000,62.906250 L -1425.0000,142.37500 L -1330.0000,142.96875 L -1330.0000,312.37500 L -1430.0000,312.78125 L -1430.0000,397.37500 L -1515.0000,397.37500 L -1515.0000,508.37500 L -1365.0000,508.37500 L -1365.0000,462.37500 L -1234.3438,462.31250 L -1235.0000,517.37500 L -1315.0000,517.37500 L -1315.0000,562.37500 L -1420.0000,563.37500 L -1420.0000,643.37500 L -1265.0000,642.37500 L -1265.0000,707.37500 L -1345.0000,707.37500 L -1345.0000,742.37500 L -1635.0000,742.36218 L -1635.0000,712.36218 L -1545.0000,712.36218 L -1520.0000,682.36218 L -1520.0000,592.36218 L -1555.0000,557.36218 L -1670.0000,557.36218 L -1695.0000,582.36218 L -1695.0000,672.36218 L -1760.0000,672.36218 L -1760.0000,582.36218 L -1785.0000,557.36218 L -1915.0000,557.36218 L -1950.0000,592.36218 L -1950.0000,687.36218 L -1925.0000,712.36218 L -1830.0000,712.36218 L -1830.0000,797.36218 L -1865.0000,797.36218 L -1865.0000,753.36218 L -2020.0000,752.36218 L -2020.0000,602.36218 L -2265.0000,602.36218 L -2265.0000,633.36218 L -2365.0000,632.36218 L -2365.0000,612.36219 L -2665.0000,612.36218 L -2665.0000,712.36218 L -2480.0000,712.36219 L -2480.0000,732.36218 L -2265.0000,732.36218 L -2265.0000,792.36218 L -2400.0000,792.36218 L -2400.0000,877.36218 L -2210.0000,877.36218 L -2210.0000,917.36218 L -2110.0000,917.36218 L -2110.0000,947.36218 L -2190.0000,947.36218 L -2190.0000,1027.3622 L -2085.0000,1027.3622 L -2085.0000,1127.3622 L -2250.0000,1292.3622 L -2215.0000,1327.3622 L -2175.0000,1327.3622 L -2350.0000,1502.3622 L -2350.0000,1647.3622 L -2215.0000,1647.3622 L -2215.0000,1468.3622 L -2125.0000,1377.3622 L -2124.0000,1418.3622 L -2090.0000,1452.3622 L -1890.0000,1252.3622 L -2015.0000,1127.3622 L -2015.0000,1027.3622 L -1780.0000,1027.3622 L -1780.0000,947.36218 L -1920.0000,947.36218 L -1920.0000,917.36218 L -1680.0000,917.36218 L -1680.0000,797.36218 L -1760.0000,797.36218 L -1760.0000,712.36218 L -1695.0000,712.36218 L -1695.0000,772.36218 L -1680.0000,787.36218 L -1550.0000,787.36218 L -1535.0000,802.36218 L -1535.0000,807.36218"
       id="level_A"
       sodipodi:nodetypes="ccccccccccccccccccccccccccccccccccccccccccccccccccccccccccccccccccccccccccccccccccccccccccccccccccccccccccccccccccccccccccccccccccccccccccccccccccccccccccccccccccccccccccccccccccccccccccccccccccccccccccccccccccccccccccccccccccccccccccccccccccccccccccccccccccccccccccccccccccccccccccccccccccccccccccccc"
       class="level" />
    <path
       sodipodi:type="arc"
       style="opacity:1.0000000;fill:#ff1919;fill-opacity:0.71746033;fill-rule:nonzero;stroke:none;stroke-width:1.2000000;stroke-linecap:round;stroke-linejoin:round;stroke-miterlimit:4.0000000;stroke-dasharray:none;stroke-opacity:0.73333335"
       id="target_A"
       sodipodi:cx="1340.5000"
       sodipodi:cy="603.86218"
       sodipodi:rx="11.500000"
       sodipodi:ry="11.500000"
       d="M 1352.0000 603.86218 A 11.500000 11.500000 0 1 1  1329.0000,603.86218 A 11.500000 11.500000 0 1 1  1352.0000 603.86218 z"
       class="target" />
    <path
       sodipodi:type="arc"
       style="opacity:1.0000000;fill:#ff1919;fill-opacity:0.71746033;fill-rule:nonzero;stroke:none;stroke-width:1.2000000;stroke-linecap:round;stroke-linejoin:round;stroke-miterlimit:4.0000000;stroke-dasharray:none;stroke-opacity:0.73333335"
       id="target_B"
       sodipodi:cx="-1350.5000"
       sodipodi:cy="1813.8622"
       sodipodi:rx="10.500000"
       sodipodi:ry="10.500000"
       d="M -1340.0000 1813.8622 A 10.500000 10.500000 0 1 1  -1361.0000,1813.8622 A 10.500000 10.500000 0 1 1  -1340.0000 1813.8622 z"
       class="target"
       transform="translate(-931.0000,-186.8050)" />
    <path
       sodipodi:nodetypes="ccccc"
       id="path2770"
       d="M -1590.0000,672.36218 L -1635.0000,672.36218 L -1635.0000,632.36218 L -1590.0000,632.36218 L -1590.0000,672.36218"
       style="fill:none;fill-opacity:0.75000000;fill-rule:evenodd;stroke:#0000f2;stroke-width:0.86600000;stroke-linecap:butt;stroke-linejoin:miter;stroke-miterlimit:4.0000000;stroke-dasharray:none;stroke-opacity:0.73333335"
       class="level" />
    <path
       sodipodi:type="arc"
       style="opacity:1.0000000;fill:#19ff1d;fill-opacity:0.71746033;fill-rule:nonzero;stroke:#00f265;stroke-width:1.2000000;stroke-linecap:round;stroke-linejoin:round;stroke-miterlimit:4.0000000;stroke-dasharray:none;stroke-opacity:0.18730159"
       id="path1308"
       sodipodi:cx="150.00000"
       sodipodi:cy="120.00000"
       sodipodi:rx="18.000000"
       sodipodi:ry="18.000000"
       d="M 168.00000 120.00000 A 18.000000 18.000000 0 1 1  132.00000,120.00000 A 18.000000 18.000000 0 1 1  168.00000 120.00000 z"
       class="avatar" />
    <path
       class="level"
       style="fill:none;fill-opacity:0.75000000;fill-rule:evenodd;stroke:#0000f2;stroke-width:0.86600000;stroke-linecap:butt;stroke-linejoin:miter;stroke-miterlimit:4.0000000;stroke-dasharray:none;stroke-opacity:0.73333335"
       d="M -1830.0000,672.36218 L -1875.0000,672.36218 L -1875.0000,632.36218 L -1830.0000,632.36218 L -1830.0000,672.36218"
       id="path1309"
       sodipodi:nodetypes="ccccc" />
    <path
       sodipodi:nodetypes="cccccccccccccccccccccccccccccccccccccccccccccccc"
       id="path1310"
       d="M 1522.0000,415.36218 L 1520.0000,736.36218 L 1319.0000,934.36218 L 801.00000,930.36218 L 802.00000,850.36218 L 602.50000,850.36218 L 604.00000,733.36218 L 442.00000,734.36218 L 161.00000,1013.3622 L -160.00000,1012.3622 L -162.00000,1132.3622 L -562.00000,1136.3622 L -839.00000,853.36218 L -962.00000,853.36218 L -960.00000,976.36218 L -1600.0000,974.36218 L -1599.0000,1295.3622 L -1719.0000,1294.3622 L -2163.0000,1737.3622 L -2477.0000,1732.3622 L -2482.0000,1336.3622 L -2280.0000,1135.3622 L -2280.0000,972.36218 L -2480.0000,973.36218 L -2620.0000,832.36218 L -2823.0000,832.36218 L -2821.0000,493.36218 L -2123.0000,496.36218 L -2002.0000,377.36218 L -1676.0000,377.36218 L -1554.0000,257.36218 L -1558.0000,95.362183 L -1440.0000,-27.637817 L -960.00000,-26.637817 L -837.00000,93.362183 L -680.00000,95.362183 L -681.00000,417.36218 L -324.00000,414.36218 L -163.00000,252.36218 L -517.00000,256.36218 L -519.00000,-150.63782 L -140.00000,-529.63782 L 41.000000,-527.63782 L 40.000000,-466.63782 L 1003.0000,-466.63782 L 1243.0000,-227.63782 L 1240.0000,132.36218 L 1522.0000,415.36218"
       style="fill:none;fill-opacity:0.75000000;fill-rule:evenodd;stroke:#0000f2;stroke-width:0.86600000;stroke-linecap:butt;stroke-linejoin:miter;stroke-miterlimit:4.0000000;stroke-dasharray:none;stroke-opacity:0.73333335"
       class="level" />
  </g>
</svg>
