<?xml version="1.0" encoding="UTF-8" standalone="no"?>
<!-- Created with Inkscape (http://www.inkscape.org/) -->
<svg
   xmlns:dc="http://purl.org/dc/elements/1.1/"
   xmlns:cc="http://creativecommons.org/ns#"
   xmlns:rdf="http://www.w3.org/1999/02/22-rdf-syntax-ns#"
   xmlns:svg="http://www.w3.org/2000/svg"
   xmlns="http://www.w3.org/2000/svg"
   xmlns:sodipodi="http://sodipodi.sourceforge.net/DTD/sodipodi-0.dtd"
   xmlns:inkscape="http://www.inkscape.org/namespaces/inkscape"
   width="210mm"
   height="297mm"
   id="svg2"
   sodipodi:version="0.32"
   inkscape:version="0.46"
   sodipodi:docbase="/home/blue_prawn/Documents/prog/ocaml/GFX/Chipmunk/Chipmunk-4.0.2/ocaml/local/rolling_moon"
   sodipodi:docname="level.G.svgz"
   inkscape:output_extension="org.inkscape.output.svgz.inkscape">
  <defs
     id="defs4">
    <inkscape:perspective
       sodipodi:type="inkscape:persp3d"
       inkscape:vp_x="0 : 526.18109 : 1"
       inkscape:vp_y="0 : 1000 : 0"
       inkscape:vp_z="744.09448 : 526.18109 : 1"
       inkscape:persp3d-origin="372.04724 : 350.78739 : 1"
       id="perspective41" />
  </defs>
  <sodipodi:namedview
     id="base"
     pagecolor="#ffffff"
     bordercolor="#666666"
     borderopacity="1.0"
     inkscape:pageopacity="0.0"
     inkscape:pageshadow="2"
     inkscape:zoom="0.062"
     inkscape:cx="3432.189"
     inkscape:cy="-4201.36"
     inkscape:document-units="px"
     inkscape:current-layer="layer1"
     inkscape:window-width="1280"
     inkscape:window-height="976"
     inkscape:window-x="0"
     inkscape:window-y="23"
     showgrid="true"
     inkscape:grid-points="true"
     gridtolerance="5.4000000px" />
  <metadata
     id="metadata7">
    <rdf:RDF>
      <cc:Work
         rdf:about="">
        <dc:format>image/svg+xml</dc:format>
        <dc:type
           rdf:resource="http://purl.org/dc/dcmitype/StillImage" />
      </cc:Work>
    </rdf:RDF>
  </metadata>
  <g
     inkscape:label="Calque 1"
     inkscape:groupmode="layer"
     id="layer1">
    <path
       style="fill:none;fill-opacity:0.75000000;fill-rule:evenodd;stroke:#0000f2;stroke-width:2.2000000;stroke-linecap:butt;stroke-linejoin:miter;stroke-miterlimit:4.0000000;stroke-dasharray:none;stroke-opacity:0.73333335"
       d="M 514,-90.637817 L 417,-132.63782 L 355,-21.637817 L 363,79.362183 L 252,182.36218 L 200,131.36218 L 233,91.362183 L 238,-71.637817 L 199,-74.637817 L 112,-188.63782 L -12,-169.63782 L 59,-14.637817 L -40,84.362183 L -75,185.36218 L -145,206.36218 L -160,273.36218 L -107,435.36218 L -60,471.36218 L -29,518.36218 L -49,574.36218 L -14,642.36218 L 122,629.36218 L 166,565.36218 L 267,546.36218 L 273,610.36218 L 174,757.36218 L 123,893.36218 L -42,949.36218 L -56,977.36218 L -107,990.36218 L -150,779.36218 L -192,784.36218 L -222,753.36218 L -261,742.36218 L -266,693.36218 L -221,657.36218 L -219,591.36218 L -291,493.36218 L -432,493.36218 L -450,569.36218 L -544,593.36218 L -616,556.36218 L -716,553.36218 L -794,609.36218 L -783,691.36218 L -816,715.36218 L -924,724.36218 L -988,843.36218 L -969,856.36218 L -997,878.36218 L -1060,859.36218 L -1186,965.36218 L -1177,1017.3622 L -1103,1060.3622 L -1051,1064.3622 L -956,912.36218 L -821,920.36218 L -682,789.36218 L -638,803.36218 L -628,908.11218 L -656,967.36218 L -641,1043.3622 L -641.625,1058.2372 L -810,1056.3622 L -901,1066.3622 L -967,1091.3622 L -955,1157.3622 L -939,1180.3622 L -1014,1197.3622 L -1135,1271.3622 L -1136,1388.3622 L -1065,1468.3622 L -986,1397.3622 L -878,1411.3622 L -864,1318.3622 L -895,1275.3622 L -822,1254.3622 L -827,1172.3622 L -645.375,1147.4872 L -646,1162.3622 L -598,1201.3622 L -479,1209.3622 L -448,1103.3622 L -404,1069.3622 L -327,1174.3622 L -200,1122.3622 L -202,1078.3622 L -140,1086.3622 L 45,1030.3622 L 48,1098.3622 L -42,1134.3622 L -75,1182.3622 L -222,1187.3622 L -345,1223.3622 L -350,1298.3622 L -386,1329.3622 L -456,1302.3622 L -543,1422.3622 L -657,1431.3622 L -678,1496.3622 L -721,1468.3622 L -845,1561.3622 L -826,1660.3622 L -744,1666.3622 L -627,1678.3622 L -596,1617.3622 L -553,1612.3622 L -522,1687.3622 L -503,1719.3622 L -631,1843.3622 L -599,1927.3622 L -444,1843.3622 L -442,1729.3622 L -405,1741.3622 L -319,1759.3622 L -294,1718.3622 L -326,1637.3622 L -426,1627.3622 L -442,1584.3622 L -518,1571.3622 L -555,1548.3622 L -503,1518.3622 L -339,1510.3622 L -342,1440.3622 L -403,1404.3622 L -306,1385.3622 L -216,1471.3622 L -147,1413.3622 L -79,1409.3622 L -49,1363.3622 L -23,1356.3622 L 13,1502.3622 L 65,1555.3622 L 77,1655.3622 L 147,1706.3622 L 161,1763.3622 L 270,1785.3622 L 265,1716.3622 L 354,1816.3622 L 414.125,1845.8622 L 461,1869.3622 L 352,1956.3622 L 313,2030.3622 L 308,2171.3622 L 238,2223.3622 L 123,2239.3622 L 73,2299.3622 L -7,2304.3622 L -103,2258.3622 L -178,2299.3622 L -309,2225.3622 L -433,2268.3622 L -411,2403.3622 L -491,2433.3622 L -633,2396.3622 L -655,2454.3622 L -645,2573.3622 L -768,2634.3622 L -803,2703.3622 L -724,2858.3622 L -598,2870.3622 L -527,2928.3622 L -483,2932.3622 L -401,2730.3622 L -275,2659.3622 L -168,2673.3622 L -119,2731.3622 L -115,2896.3622 L 8,2891.3622 L 100,2743.3622 L 181.5,2743.3622 L 336,2850.3622 L 361,2785.3622 L 437,2761.3622 L 524,2829.3622 L 544,2880.3622 L 445,2999.3622 L 201,3032.3622 L 6,3155.3622 L 13,3357.3622 L 218,3366.3622 L 416,3321.3622 L 487,3235.3622 L 572,3188.3622 L 709,3315.3622 L 817,3394.3622 L 873,3367.3622 L 968,3423.3622 L 1079,3546.3622 L 1076,3772.3622 L 1150,3844.3622 L 1249,3782.3622 L 1318,3692.3622 L 1388,3674.3622 L 1415,3714.3622 L 1522,3732.3622 L 1593,3798.3622 L 1623,3849.3622 L 1538,3943.3622 L 1363,3963.3622 L 1252,4121.3622 L 1307,4198.3622 L 1478,4247.3622 L 1601,4192.3622 L 1641,4102.3622 L 1711,4046.3622 L 1780,4065.3622 L 1915,3981.2193 L 1859.7143,3888.9812 L 1851.8571,3799.4098 L 1898.5238,3791.6479 L 1975.7143,3844.9336 L 2058.2857,3824.1241 L 2162.9048,3844.7908 L 2283.3333,3945.6955 L 2335.4286,3994.6955 L 2364.619,4093.2193 L 2309.4286,4163.0765 L 2216,4244.3622 L 2125,4305.3622 L 2052,4377.3622 L 1937,4428.3622 L 1947,4478.3622 L 1936,4523.3622 L 1859,4568.3622 L 1772,4548.3622 L 1681,4506.3622 L 1594,4448.3622 L 1555,4464.3622 L 1517,4497.3622 L 1432,4472.3622 L 1334,4548.3622 L 1307,4664.3622 L 1268,4703.3622 L 1219,4705.3622 L 1164,4628.3622 L 1151,4492.3622 L 1184,4419.3622 L 1234,4326.3622 L 1144,4202.3622 L 1047,4175.3622 L 911,4190.3622 L 688,4265.3622 L 595.66667,4406.4574 L 461.57143,4363.3622 L 269.95238,4305.7908 L 231.57143,4145.5051 L 135.28571,4094.6955 L 64.714286,4011.4574 L 124.28571,3786.3146 L 159.61905,3622.4098 L 97,3454.3622 L 29,3470.3622 L -116,3396.3622 L -236,3319.3622 L -364,3323.3622 L -501,3371.3622 L -630,3462.3622 L -711,3674.3622 L -797,3744.3622 L -1053,3816.3622 L -1124,3707.3622 L -1049,3570.3622 L -1087,3422.3622 L -1067,3250.3622 L -991,3176.3622 L -935,3080.3622 L -974,2977.3622 L -1110,2831.3622 L -1186,2710.3622 L -1083,2567.3622 L -977,2479.3622 L -1015,2345.3622 L -1123.0476,2326.2193 L -1276.0952,2377.7432 L -1429.0476,2300.5527 L -1568.881,2324.6955 L -1618.2381,2229.7908 L -1566.2857,2159.4098 L -1581,2022.3622 L -1516,1880.3622 L -1535.8095,1818.5527 L -1655.6667,1778.267 L -1630.381,1665.7908 L -1472.5714,1545.7432 L -1403.8095,1487.3146 L -1405.4762,1372.6003 L -1307.1905,1245.267 L -1279,1136.3622 L -1320,1047.3622 L -1453.2857,1030.4098 L -1586.5238,1052.9812 L -1683.7619,1157.7908 L -1781.1905,1183.7907 L -1836.5298,1325.6301 L -1925.6667,1226.6955 L -2032.4286,1224.648 L -2177.8096,1296.4098 L -2159.4762,1117.4336 L -2217.3333,967.02885 L -2328,889.12408 L -2472.4286,950.1717 L -2666.4286,1018.1717 L -2729.4286,1111.1717 L -2704.4286,1217.1717 L -2830,1376.3622 L -2796,1528.3622 L -2629,1567.3622 L -2544.1875,1516.7997 L -2358,1465.3622 L -2292.375,1505.2372 L -2362,1561.3622 L -2390,1690.3622 L -2507,1775.3622 L -2633,1788.3622 L -2819,1848.3622 L -2936,1997.3622 L -2958,2102.3622 L -3136,2198.3622 L -3175,2309.3622 L -3231,2376.3622 L -3438,2417.3622 L -3550,2565.3622 L -3650,2725.3622 L -3803,2825.3622 L -3824,2869.3622 L -3965,2866.3622 L -4168,2996.3622 L -4162,3078.3622 L -4149,3313.3622 L -4016,3502.3622 L -3904,3605.3622 L -3845,3708.3622 L -3710,3757.3622 L -3505,3855.3622 L -3282,3785.3622 L -3115,3563.3622 L -3010,3526.3622 L -2818,3489.3622 L -2769,3394.3622 L -2766.5938,3209.4872 L -2725,3085.3622 L -2593,3032.3622 L -2507,2874.3622 L -2396,2821.3622 L -2258,2874.3622 L -2099,2937.3622 L -1963,2816.3622 L -1872.375,2815.8622 L -1764.6875,2711.6122 L -1707,2772.3622 L -1796,2853.8622 L -1850.5,3017.1122 L -1820,3265.3622 L -1998,3291.3622 L -2019,3435.3622 L -2003,3519.3622 L -2054,3617.3622 L -2259.619,3701.886 L -2331.381,3787.9336 L -2357.619,3914.7908 L -2334.2857,3993.3622 L -2380.4762,4143.7907 L -2509.0953,4216.7908 L -2598.1667,4226.5051 L -2682.4762,4136.2194 L -2876.3095,4129.1241 L -2951.0952,3974.4099 L -3171.6666,3913.1242 L -3356.5714,4041.2432 L -3568.0714,4091.017 L -3627.1905,4312.2193 L -3512.7619,4472.3027 L -3274.5239,4503.8146 L -3245.8096,4694.8503 L -3150.4286,4762.0764 L -3186.6191,4848.1479 L -3508.5238,4929.4574 L -3716.8572,5205.267 L -3600.1429,5419.0289 L -3343.1429,5436.9098 L -3119.4762,5588.1241 L -2870.4524,5512.6955 L -2726.1905,5308.6955 L -2828.4405,5082.7193 L -2754.5,5042.4574 L -2692.3333,4895.267 L -2457,4832.3622 L -2452.0953,4536.7907 L -2270.8095,4502.5527 L -2170.4762,4415.9337 L -2026.4762,4479.5527 L -1842.619,4458.886 L -1797.0952,4346.9812 L -1686,4255.3622 L -1682,4101.3622 L -1572.6667,4015.3146 L -1400.4286,4012.7908 L -1269.8571,4095.0765 L -1256,4281.3622 L -1291,4419.3622 L -1281,4532.3622 L -1131,4590.3622 L -856,4525.3622 L -481.7619,4588.4574 L -307.80952,4522.6955 L -267.09524,4300.267 L -184.90476,4223.4098 L -50.190476,4338.1479 L -53.809524,4471.267 L 32.380952,4583.3146 L 208.52381,4665.6955 L 359.95238,4738.3622 L 471.80952,4845.3146 L 471.04762,5013.267 L 551.71429,5158.267 L 780,5336.3622 L 926,5315.3622 L 1072,5354.3622 L 1194,5489.3622 L 1281,5618.3622 L 1411,5719.3622 L 1398,5851.3622 L 1269,5931.3622 L 1256,6171.3622 L 1075,6306.3622 L 850.98925,6430.6095 L 631.74194,6412.6256 L 434,6276.3622 L 301,6375.3622 L 120.74731,6377.8514 L -48.752688,6369.588 L -190,6565.8622 L -342,6665.3622 L -511,6604.3622 L -680,6543.3622 L -943.71505,6613.873 L -1487,6598.3622 L -1712.4946,6801.373 L -1981,6918.3622 L -2277,7131.3622 L -2514.25,7066.8622 L -2633,7126.3622 L -2842,6908.3622 L -3051,6690.3622 L -3233,6628.3622 L -3465,6613.421 L -3585.2568,6758.5681 L -3693.0215,6785.8783 L -3914.5,6694.3622 L -4222,6667.3622 L -4445.2742,6747.8622 L -4528.7634,6882.1256 L -4485,7082.3622 L -4595.5,7314.3622 L -4614.8235,7552.2446 L -4698.1765,7698.8916 L -5008,7836.7151 L -5143.369,8082.3622 L -5099.7059,8275.0681 L -4861.1176,8340.921 L -4549,8527.3622 L -4405.0215,8402.1749 L -4160.6765,8426.6269 L -3990.5882,8308.0681 L -3942,8137.5681 L -3746.3529,8058.2446 L -3630.6537,8114.4463 L -3453,8062.3622 L -3236,8165.3622 L -3000.6875,8168.2372 L -2840.6438,8181.8649 L -2765.4617,8065.9845 L -2572,7982.3622 L -2525,7781.8622 L -2478,7581.3622 L -2289,7515.3622 L -2100,7449.3622 L -1964.5,7268.3622 L -1829,7087.3622 L -1542,6953.3622 L -1255,6819.3622 L -965,6901.3622 L -796,6972.3622 L -513.5,6938.8622 L -252.50538,7002.1364 L -100.48387,6799.6203 L 124,6679.8622 L 337.73118,6667.631 L 368.97312,6876.3998 L 421.72043,7095.9213 L 729.01075,7114.9213 L 765.25806,6951.9106 L 866.02151,6831.9106 L 893.99462,6711.373 L 1051,6698.3622 L 1352.9892,6581.8676 L 1412,6363.3622 L 1533,6242.3622 L 1630,6011.3622 L 1760,6011.3622 L 1860,5961.3622 L 1975,6056.3622 L 2096,6071.3622 L 2213,5941.3622 L 2229,5900.3622 L 2340,5796.3622 L 2363,5682.3622 L 2354,5571.3622 L 2390,5490.3622 L 2476,5361.3622 L 2632,5334.3622 L 2779,5377.3622 L 2867,5475.3622 L 2954,5487.3622 L 2993,5565.3622 L 2983,5668.3622 L 3109,5753.3622 L 3087,5852.3622 L 3157,5890.3622 L 3162,5996.3622 L 3075,6080.3622 L 2881,6090.3622 L 2795,6145.3622 L 2646,6280.3622 L 2492,6297.3622 L 2415,6379.3622 L 2447,6482.3622 L 2563,6535.3622 L 2575,6594.3622 L 2553,6721.3622 L 2606,6834.3622 L 2706,6877.3622 L 2922,6853.3622 L 3006,6814.3622 L 3212,6862.3622 L 3307,6964.3622 L 3313,7071.3622 L 3254,7214.3622 L 3284,7316.3622 L 3346,7321.3622 L 3392,7383.3622 L 3306,7612.3622 L 3100,7849.3622 L 3090,7918.3622 L 3125,7962.3622 L 3149,8104.3622 L 3278,8143.3622 L 3349,8224.3622 L 3309,8339.3622 L 3345,8394.3622 L 3361,8466.3622 L 3304,8618.3622 L 3374,8706.3622 L 3474,8776.3622 L 3676,8780.3622 L 3764,8705.3622 L 3864,8626.3622 L 3952,8597.3622 L 3942,8450.3622 L 4015,8464.3622 L 4071,8547.3622 L 4123,8716.3622 L 4208,8723.3622 L 4264,8950.3622 L 4401.125,9046.2372 L 4443.25,9162.1122 L 4560.375,9212.9872 L 4737.5,9208.8622 L 4829.625,9054.7372 L 4980.6875,9015.1747 L 5076.75,8890.6122 L 5199.7812,8873.3309 L 5362.8125,9071.0497 L 5363.3438,9231.2684 L 5523.875,9326.4872 L 5687.4375,9146.9247 L 5851,8967.3622 L 5885.9375,8809.9247 L 5920.875,8652.4872 L 5928.3125,8590.0497 L 6090.75,8607.6122 L 6231.9688,8876.3934 L 6263.1875,9235.1747 L 6499.4062,9323.9559 L 6765.625,9227.7372 L 6848.0938,9024.0184 L 6970.5625,8965.2997 L 7161.0293,8935.3798 L 7401.4961,9115.4598 L 7481.9629,9035.5399 L 7532.4297,9100.62 L 7517.8965,9360.7001 L 7718.3633,9495.7802 L 8018.8301,9365.8602 L 8074.2969,9235.9403 L 8029.7636,9121.0204 L 8070.2304,9006.1004 L 8480.6972,8951.1805 L 8596.164,9021.2606 L 8676.6308,9171.3407 L 8897.0976,9181.4207 L 9007.5644,9006.5008 L 9145.7186,8919.0058 L 9093.8728,8746.5108 L 9182.0269,8539.0158 L 9035.1811,8301.5208 L 9093.3353,8064.0258 L 9266.4895,7931.5309 L 9549.6436,8054.0359 L 9557.7978,8246.5409 L 9828.8136,8280.9171 L 9947.1023,8110.7479 L 10061.754,8036.0332 L 10267.691,7981.2182 L 10296.353,7788.2213 L 10261.38,7598.8609 L 10332.77,7438.5914 L 10487.876,7469.433 L 10648.437,7590.2747 L 10747.441,7444.3488 L 10893.718,7365.6956 L 11104.539,7344.315 L 11185.361,7132.9346 L 11098.456,6886.3268 L 10847.914,6736.9918 L 10615.961,6751.2489 L 10466.154,6630.4951 L 10421.802,6502.4684 L 10487.305,6324.3255 L 10582.807,6133.4551 L 10753.31,6093.0394 L 10796.541,5894.4418 L 10646.589,5729.026 L 10507.547,5691.7921 L 10325.826,5640.0516 L 10141.389,5777.1732 L 9991.4989,5760.6585 L 9958.8805,5565.962 L 10024.445,5298.5383 L 9907.5082,5089.7508 L 9719.6634,5113.6907 L 9320.2865,5102.4788 L 9102.7278,4873.0851 L 8832.1548,4997.0249 L 8681.1247,4865.5808 L 8557.3674,4952.3185 L 8506.3373,5139.0562 L 8328.0345,5207.6121 L 8223.9142,5481.8357 L 8356.1576,5492.4229 L 8461.1283,5384.8283 L 8680.1007,5427.1774 L 8914.5287,5353.1626 L 9130.775,5528.2389 L 9163.9395,5732.1802 L 9427.5078,5837.0361 L 9507.3726,6057.6567 L 9654.1035,6234.6853 L 9694.5278,6487.1431 L 9545.8616,6640.5099 L 9576.286,6852.0585 L 9279.4377,7140.4253 L 9167.1348,7286.0647 L 8967.5592,7352.6134 L 8707.9836,7501.8893 L 8524.7415,7594.532 L 8420.5903,7853.5382 L 8136.4392,7983.4536 L 7974.1062,8281.5509 L 7632.2603,8224.0559 L 7480.4145,8351.5609 L 7218.5687,8214.0659 L 7036.7229,8201.5709 L 6994.877,7929.0759 L 6903.0312,7846.5809 L 6550.5,7812.8622 L 6221.7188,8021.6435 L 6007.9375,8040.4247 L 5829.1562,8024.206 L 5695.375,8122.9872 L 5520.25,8253.1122 L 5305.125,8208.2372 L 5225,8328.3622 L 5023.125,8273.6122 L 4802.1875,8161.2372 L 4656.25,8018.8622 L 4512.8125,7948.9872 L 4344.375,7779.1122 L 4177.5,7594.3622 L 4015.625,7594.6122 L 3888.75,7354.8622 L 3761.875,7195.1122 L 3780,6990.3622 L 3857,6770.3622 L 3985,6662.3622 L 4198,6539.3622 L 4372.8333,6641.8622 L 4547.6667,6627.6955 L 4785.5,6642.5289 L 5073.3333,6774.0289 L 5153.8333,6686.0289 L 5276,6606.3622 L 5324.6667,6410.6955 L 5240,6198.3622 L 5169.6667,5921.5289 L 4966,5661.3622 L 4863,5525.1955 L 4660,5472.3622 L 4593.6667,5422.3622 L 4394,5522.3622 L 4312.1667,5712.1955 L 4272,5885.3622 L 4168.3333,5963.6955 L 3966,5881.1122 L 3841,5941.3622 L 3522,5783.3622 L 3381,5615.3622 L 3450,5507.3622 L 3623,5527.3622 L 3750,5631.3622 L 3896,5531.3622 L 3985,5416.3622 L 3900,5180.3622 L 3708,4985.3622 L 3483.125,4949.6122 L 3416,4736.3622 L 3202,4568.3622 L 3029,4495.3622 L 3094,4325.3622 L 3299,4257.3622 L 3469,4228.3622 L 3639,4360.3622 L 3849,4277.3622 L 4060,4298.3622 L 4177,4148.3622 L 4155,4015.3622 L 4085,3899.3622 L 3904.9062,3806.1122 L 3884,3659.3622 L 3704.8125,3596.8622 L 3762.3438,3457.4247 L 3713.5508,3284.9169 L 3810.2754,3214.1395 L 4127,3283.3622 L 4347,3275.3622 L 4406,3115.3622 L 4448,3035.3622 L 4402,2900.3622 L 4264,2785.3622 L 3956.1111,2865.14 L 3814.4444,2800.14 L 3938.75,2659.4872 L 3916.5556,2568.14 L 3947.5556,2444.9178 L 4116,2434.14 L 4281,2347.9178 L 4462.1111,2339.4733 L 4590.1528,2397.015 L 4724,2387.3622 L 4780,2468.3622 L 4717,2618.3622 L 4702.2222,2797.8066 L 4843.2222,2916.9178 L 4973.3333,3066.6955 L 5145.1111,3075.6955 L 5213.6397,2892.2484 L 5310.2605,2847.9142 L 5440.1111,2899.14 L 5546.8889,3040.3622 L 5806.8889,2978.5844 L 5922.1111,2862.3622 L 5988,2766.3622 L 6007,2580.3622 L 5859,2440.3622 L 5740,2325.3622 L 5714,2209.3622 L 5520,2115.3622 L 5441.5556,1944.14 L 5445.7778,1767.9178 L 5392,1619.2511 L 5395.3333,1459.64 L 5245.8889,1338.9178 L 5073.1111,1318.8066 L 4964.2222,1220.9178 L 4769.4545,1249.9986 L 4528.2727,1146.0895 L 4460,1013.3622 L 4282,883.36218 L 4221,707.36218 L 4134,655.36218 L 3944,654.36218 L 3764,577.36218 L 3582,585.36218 L 3455,502.36218 L 3267,469.36218 L 3185,461.36218 L 3010,520.36218 L 2890,491.36218 L 2769,541.36218 L 2646,775.36218 L 2583,814.36218 L 2570,979.36218 L 2400,1120.3622 L 2363,1281.3622 L 2394,1387.3622 L 2451,1457.3622 L 2443.1905,1660.8384 L 2521.2857,1817.6003 L 2712.3571,1915.386 L 2846.2857,1884.6003 L 2874.4762,1951.7669 L 2845.5238,2028.4574 L 2596.119,1998.5765 L 2375.2857,2040.1241 L 2237,1952.3622 L 2116,1929.3622 L 2017,1795.3622 L 1968,1744.3622 L 1832.1905,1710.3622 L 1735.619,1665.9336 L 1738,1540.3622 L 1703,1412.3622 L 1597,1358.3622 L 1455,1407.3622 L 1355,1408.3622 L 1162.2381,1474.7432 L 1111.2381,1479.7432 L 1026,1568.5051 L 1004,1717.3622 L 1093.875,1824.7372 L 1097,1927.3622 L 1059.875,2052.7372 L 1059.3512,2171.3205 L 976,2230.6122 L 953,2361.3622 L 1061,2430.3622 L 1061,2472.3622 L 1169,2525.3622 L 1259,2533.3622 L 1367,2576.3622 L 1494,2666.3622 L 1593.4762,2708.886 L 1662,2812.3622 L 1702,2962.3622 L 1805,3006.3622 L 1908,2945.3622 L 2016,2959.3622 L 2076,2987.3622 L 2174,3115.3622 L 2310,3190.3622 L 2387,3274.3622 L 2409,3404.3622 L 2483,3406.3622 L 2627,3334.3622 L 2642,3226.3622 L 2715,3155.3622 L 2814,3144.3622 L 2887,3225.3622 L 3132,3189.3622 L 3252,3243.3622 L 3383,3217.3622 L 3488,3356.3622 L 3422,3485.3622 L 3270,3470.3622 L 3029,3662.3622 L 2984,3820.3622 L 3014,4024.3622 L 2854,4063.3622 L 2722,4174.3622 L 2631,4042.3622 L 2589,3928.3622 L 2536.8571,3797.6479 L 2445.0952,3693.1717 L 2305.4762,3659.7908 L 2194.7619,3654.886 L 2067.2857,3601.5527 L 1941.5714,3569.8384 L 1888.0952,3511.4574 L 1918.381,3392.3622 L 1887,3271.3622 L 1733,3231.3622 L 1669,3120.3622 L 1611,3055.3622 L 1608,2965.3622 L 1505,2926.3622 L 1381,2989.3622 L 1253,2982.3622 L 1206,2899.3622 L 1091,2896.3622 L 1059,3080.3622 L 913,3115.3622 L 850,3088.3622 L 763,3031.3622 L 766,2995.3622 L 654,2899.3622 L 700,2861.3622 L 693,2817.3622 L 730,2740.3622 L 690,2675.3622 L 578,2594.3622 L 419,2578.3622 L 396,2437.3622 L 269,2363.3622 L 299,2302.3622 L 381,2299.3622 L 456,2140.3622 L 439,2073.3622 L 476,2012.3622 L 509,1991.3622 L 579,1911.3622 L 578,1854.3622 L 483,1813.3622 L 431,1754.3622 L 309,1682.3622 L 414,1695.3622 L 393,1632.3622 L 390,1570.3622 L 398,1542.3622 L 295,1532.3622 L 214,1490.3622 L 171,1453.3622 L 110,1420.3622 L 89,1375.3622 L 14,1277.3622 L 51,1280.3622 L 129.5,1237.3622 L 178,1160.3622 L 237,1186.3622 L 285,1166.3622 L 282,1025.3622 L 351,1047.3622 L 395,1015.3622 L 444,1020.3622 L 453,898.36218 L 393,778.36218 L 357,706.36218 L 429,681.36218 L 386,599.36218 L 415,579.36218 L 386,445.36218 L 468,394.36218 L 521,318.36218 L 602,256.36218 L 569,231.36218 L 690,224.36218 L 716,122.36218 L 717,52.362183 L 664,-2.6378174 L 535,43.362183 L 487,4.3621826 L 514,-90.637817"
       id="level"
       sodipodi:nodetypes="cccccccccccccccccccccccccccccccccccccccccccccccccccccccccccccccccccccccccccccccccccccccccccccccccccccccccccccccccccccccccccccccccccccccccccccccccccccccccccccccccccccccccccccccccccccccccccccccccccccccccccccccccccccccccccccccccccccccccccccccccccccccccccccccccccccccccccccccccccccccccccccccccccccccccccccccccccccccccccccccccccccccccccccccccccccccccccccccccccccccccccccccccccccccccccccccccccccccccccccccccccccccccccccccccccccccccccccccccccccccccccccccccccccccccccccccccccccccccccccccccccccccccccccccccccccccccccccccccccccccccccccccccccccccccccccccccccccccccccccccccccccccccccccccccccccccccccccccccccccccccccccccccccccccccccccccccccccccccccccccccccccccccccccccccccccccccccccccccccccccccccccccccccccccccccccccccccccccccccccccccccccccccccccccccccccccccccccccccccccccccccccccccccccccccccccccccccccccccccccccccccccccccccccccccccccccccccccccccccccccccccccccccccccccccccccccccccccccccccccccccccccccccccccccccccccccccccccccccccccccccccccccccccccccccccccccccccccccc"
       class="level" />
    <path
       class="level"
       sodipodi:nodetypes="ccccc"
       id="path1323"
       d="M 78.000000,106.36218 L 133.00000,188.36218 L 88.700170,215.96798 L -10.000000,192.36218 L 78.000000,106.36218"
       style="fill:none;fill-opacity:0.75000000;fill-rule:evenodd;stroke:#0000f2;stroke-width:2.2000000;stroke-linecap:butt;stroke-linejoin:miter;stroke-miterlimit:4.0000000;stroke-dasharray:none;stroke-opacity:0.73333335" />
    <path
       class="level"
       sodipodi:nodetypes="ccccccccccc"
       id="path1311"
       d="M 61.102360,478.53995 L 59.000000,402.36218 L -28.000000,383.36218 L 0.0000000,292.36218 L 112.67753,271.21851 L 217.00000,317.36218 L 311.00000,269.36218 L 358.00000,290.36218 L 343.00000,356.36218 L 255.00000,414.36218 L 61.102360,478.53995"
       style="fill:none;fill-opacity:0.75000000;fill-rule:evenodd;stroke:#0000f2;stroke-width:2.2000000;stroke-linecap:butt;stroke-linejoin:miter;stroke-miterlimit:4.0000000;stroke-dasharray:none;stroke-opacity:0.73333335" />
    <path
       sodipodi:type="arc"
       style="opacity:1.0000000;fill:#19ff1d;fill-opacity:0.71746033;fill-rule:nonzero;stroke:#00f265;stroke-width:1.2000000;stroke-linecap:round;stroke-linejoin:round;stroke-miterlimit:4.0000000;stroke-dasharray:none;stroke-opacity:0.18730159"
       id="path1308"
       sodipodi:cx="150.00000"
       sodipodi:cy="200.00000"
       sodipodi:rx="18.000000"
       sodipodi:ry="18.000000"
       d="M 168.00000 200.00000 A 18.000000 18.000000 0 1 1  132.00000,200.00000 A 18.000000 18.000000 0 1 1  168.00000 200.00000 z"
       class="avatar"
       transform="translate(51.60000,38.96218)" />
    <path
       class="level"
       sodipodi:nodetypes="cccccccc"
       id="path1319"
       d="M 385.00000,208.36218 L 425.00000,142.36218 L 505.00000,152.36218 L 529.00000,179.36218 L 474.00000,211.36218 L 494.00000,234.36218 L 414.00000,251.36218 L 385.00000,208.36218"
       style="fill:none;fill-opacity:1.0000000;fill-rule:evenodd;stroke:#0000f2;stroke-width:2.2000000;stroke-linecap:butt;stroke-linejoin:miter;stroke-miterlimit:4.0000000;stroke-dasharray:none;stroke-opacity:0.73333335" />
    <path
       sodipodi:type="arc"
       style="opacity:1.0000000;fill:#ff1919;fill-opacity:0.71746033;fill-rule:nonzero;stroke:none;stroke-width:1.2000000;stroke-linecap:round;stroke-linejoin:round;stroke-miterlimit:4.0000000;stroke-dasharray:none;stroke-opacity:0.73333335"
       id="path5072"
       sodipodi:cx="-1350.5000"
       sodipodi:cy="1813.8622"
       sodipodi:rx="10.500000"
       sodipodi:ry="10.500000"
       d="M -1340.0000 1813.8622 A 10.500000 10.500000 0 1 1  -1361.0000,1813.8622 A 10.500000 10.500000 0 1 1  -1340.0000 1813.8622 z"
       class="target"
       transform="matrix(0.604002,-0.796983,0.796983,0.604002,-1750.913,-1153.540)" />
    <path
       transform="matrix(0.604002,-0.796983,0.796983,0.604002,-1637.913,-791.0406)"
       class="target"
       d="M -1340.0000 1813.8622 A 10.500000 10.500000 0 1 1  -1361.0000,1813.8622 A 10.500000 10.500000 0 1 1  -1340.0000 1813.8622 z"
       sodipodi:ry="10.500000"
       sodipodi:rx="10.500000"
       sodipodi:cy="1813.8622"
       sodipodi:cx="-1350.5000"
       id="path2091"
       style="opacity:1.0000000;fill:#ff1919;fill-opacity:0.71746033;fill-rule:nonzero;stroke:none;stroke-width:1.2000000;stroke-linecap:round;stroke-linejoin:round;stroke-miterlimit:4.0000000;stroke-dasharray:none;stroke-opacity:0.73333335"
       sodipodi:type="arc" />
    <path
       transform="matrix(0.604002,-0.796983,0.796983,0.604002,-1379.913,-525.5397)"
       class="target"
       d="M -1340.0000 1813.8622 A 10.500000 10.500000 0 1 1  -1361.0000,1813.8622 A 10.500000 10.500000 0 1 1  -1340.0000 1813.8622 z"
       sodipodi:ry="10.500000"
       sodipodi:rx="10.500000"
       sodipodi:cy="1813.8622"
       sodipodi:cx="-1350.5000"
       id="path2093"
       style="opacity:1.0000000;fill:#ff1919;fill-opacity:0.71746033;fill-rule:nonzero;stroke:none;stroke-width:1.2000000;stroke-linecap:round;stroke-linejoin:round;stroke-miterlimit:4.0000000;stroke-dasharray:none;stroke-opacity:0.73333335"
       sodipodi:type="arc" />
    <path
       transform="matrix(0.604002,-0.796983,0.796983,0.604002,-984.4117,-1643.039)"
       class="target"
       d="M -1340.0000 1813.8622 A 10.500000 10.500000 0 1 1  -1361.0000,1813.8622 A 10.500000 10.500000 0 1 1  -1340.0000 1813.8622 z"
       sodipodi:ry="10.500000"
       sodipodi:rx="10.500000"
       sodipodi:cy="1813.8622"
       sodipodi:cx="-1350.5000"
       id="path2095"
       style="opacity:1.0000000;fill:#ff1919;fill-opacity:0.71746033;fill-rule:nonzero;stroke:none;stroke-width:1.2000000;stroke-linecap:round;stroke-linejoin:round;stroke-miterlimit:4.0000000;stroke-dasharray:none;stroke-opacity:0.73333335"
       sodipodi:type="arc" />
    <path
       style="fill:none;fill-opacity:1.0000000;fill-rule:evenodd;stroke:#0000f2;stroke-width:2.2000000;stroke-linecap:butt;stroke-linejoin:miter;stroke-miterlimit:4.0000000;stroke-dasharray:none;stroke-opacity:0.73333335"
       d="M 226.00000,848.36218 L 284.00000,738.36218 L 297.00000,803.36218 L 334.00000,843.36218 L 362.00000,905.36218 L 294.00000,874.36218 L 228.60000,887.96218 L 226.00000,848.36218"
       id="path1312"
       sodipodi:nodetypes="cccccccc"
       class="level" />
    <path
       style="fill:none;fill-opacity:0.75000000;fill-rule:evenodd;stroke:#0000f2;stroke-width:2.2000000;stroke-linecap:butt;stroke-linejoin:miter;stroke-miterlimit:4.0000000;stroke-dasharray:none;stroke-opacity:0.73333335"
       d="M -410.00000,993.36218 L -520.00000,1052.3622 L -561.40000,962.58441 L -573.00000,883.36218 L -541.00000,816.36218 L -459.70000,866.97330 L -386.00000,862.36218 L -318.00000,916.36218 L -237.00000,873.36218 L -215.00000,935.36218 L -305.00000,1013.3622 L -410.00000,993.36218"
       id="path1314"
       sodipodi:nodetypes="cccccccccccc"
       class="level" />
    <path
       style="fill:none;fill-opacity:1.0000000;fill-rule:evenodd;stroke:#0000f2;stroke-width:2.2000000;stroke-linecap:butt;stroke-linejoin:miter;stroke-miterlimit:4.0000000;stroke-dasharray:none;stroke-opacity:0.73333335"
       d="M -544.00000,723.36218 L -514.00000,670.36218 L -381.00000,631.36218 L -355.00000,650.36218 L -332.00000,684.36218 L -366.00000,716.36218 L -406.00000,788.36218 L -480.00000,733.36218 L -544.00000,723.36218"
       id="path1316"
       sodipodi:nodetypes="ccccccccc"
       class="level" />
    <path
       class="level"
       sodipodi:nodetypes="ccccccccccccccc"
       id="path1318"
       d="M -162.00000,2596.3622 L -232.00000,2546.3622 L -374.00000,2614.3622 L -440.00000,2585.3622 L -358.00000,2530.3622 L -371.00000,2496.3622 L -301.00000,2430.3622 L -278.00000,2366.3622 L -143.00000,2419.3622 L -17.000000,2403.3622 L 28.000000,2435.3622 L -25.000000,2491.3622 L -31.000000,2584.3622 L -67.000000,2612.3622 L -162.00000,2596.3622"
       style="fill:none;fill-opacity:0.75000000;fill-rule:evenodd;stroke:#0000f2;stroke-width:2.2000000;stroke-linecap:butt;stroke-linejoin:miter;stroke-miterlimit:4.0000000;stroke-dasharray:none;stroke-opacity:0.73333335" />
    <path
       class="level"
       sodipodi:nodetypes="cccccccc"
       id="path1320"
       d="M 53.000000,2602.3622 L 78.000000,2518.3622 L 196.00000,2499.3622 L 262.00000,2537.3622 L 269.00000,2588.3622 L 209.00000,2649.3622 L 140.00000,2601.3622 L 53.000000,2602.3622"
       style="fill:none;fill-opacity:1.0000000;fill-rule:evenodd;stroke:#0000f2;stroke-width:2.2000000;stroke-linecap:butt;stroke-linejoin:miter;stroke-miterlimit:4.0000000;stroke-dasharray:none;stroke-opacity:0.73333335" />
    <path
       sodipodi:type="arc"
       style="opacity:1.0000000;fill:#ff1919;fill-opacity:0.71746033;fill-rule:nonzero;stroke:none;stroke-width:1.2000000;stroke-linecap:round;stroke-linejoin:round;stroke-miterlimit:4.0000000;stroke-dasharray:none;stroke-opacity:0.73333335"
       id="path1322"
       sodipodi:cx="-1350.5000"
       sodipodi:cy="1813.8622"
       sodipodi:rx="10.500000"
       sodipodi:ry="10.500000"
       d="M -1340.0000 1813.8622 A 10.500000 10.500000 0 1 1  -1361.0000,1813.8622 A 10.500000 10.500000 0 1 1  -1340.0000 1813.8622 z"
       class="target"
       transform="matrix(0.604002,-0.796983,0.796983,0.604002,-1249.913,555.4603)" />
    <path
       style="fill:none;fill-opacity:1.0000000;fill-rule:evenodd;stroke:#0000f2;stroke-width:2.2000000;stroke-linecap:butt;stroke-linejoin:miter;stroke-miterlimit:4.0000000;stroke-dasharray:none;stroke-opacity:0.73333335"
       d="M -644.00000,2681.3622 L -629.00000,2638.3622 L -541.00000,2641.3622 L -507.00000,2672.7622 L -520.00000,2724.7622 L -589.00000,2733.7622 L -644.00000,2681.3622"
       id="path1324"
       sodipodi:nodetypes="ccccccc"
       class="level" />
    <path
       class="level"
       sodipodi:nodetypes="ccccccccccccc"
       id="path2052"
       d="M -2193,3924.3622 L -2154,3815.3622 L -2015,3815.3622 L -1896,3806.4622 L -1817,3868.3622 L -1822,3923.3622 L -1787,4000.3622 L -1812,4076.3622 L -1941.7143,4166.5051 L -2075,4222.5527 L -2177,4122.2193 L -2159,3999.3622 L -2193,3924.3622"
       style="fill:none;fill-opacity:1.0000000;fill-rule:evenodd;stroke:#0000f2;stroke-width:2.2000000;stroke-linecap:butt;stroke-linejoin:miter;stroke-miterlimit:4.0000000;stroke-dasharray:none;stroke-opacity:0.73333335" />
    <path
       sodipodi:type="arc"
       style="opacity:1.0000000;fill:#ff1919;fill-opacity:0.71746033;fill-rule:nonzero;stroke:none;stroke-width:1.2000000;stroke-linecap:round;stroke-linejoin:round;stroke-miterlimit:4.0000000;stroke-dasharray:none;stroke-opacity:0.73333335"
       id="path2054"
       sodipodi:cx="-1350.5000"
       sodipodi:cy="1813.8622"
       sodipodi:rx="10.500000"
       sodipodi:ry="10.500000"
       d="M -1340.0000 1813.8622 A 10.500000 10.500000 0 1 1  -1361.0000,1813.8622 A 10.500000 10.500000 0 1 1  -1340.0000 1813.8622 z"
       class="target"
       transform="matrix(0.604002,-0.796983,0.796983,0.604002,821.4833,-707.4890)" />
    <path
       class="level"
       sodipodi:nodetypes="ccccccccccccccccccccccccccccccccccccccccccccccc"
       id="path3508"
       d="M -2722.1,2250.4622 L -2691.6,2229.9622 L -2661.1,2209.4622 L -2583,2253.3622 L -2508,2233.3622 L -2502,2311.3622 L -2607,2373.3622 L -2656,2456.3622 L -2613,2574.3622 L -2460,2622.3622 L -2478,2702.3622 L -2585,2757.3622 L -2648,2882.3622 L -2733,2752.3622 L -2873,2752.3622 L -3021,2867.3622 L -3011,2966.3622 L -2909,2991.3622 L -2855,3111.3622 L -2869,3217.3622 L -2872,3330.3622 L -2967,3384.3622 L -3040,3351.3622 L -3013,3238.3622 L -3111,3116.3622 L -3196,3074.3622 L -3297,3131.3622 L -3386,3031.3622 L -3516,2985.3622 L -3614,2984.3622 L -3620,2891.3622 L -3545,2830.3622 L -3500,2743.3622 L -3398,2712.3622 L -3283,2738.3622 L -3215,2739.3622 L -3097,2693.3622 L -3018,2640.3622 L -2943,2654.3622 L -2893,2578.3622 L -2912,2452.3622 L -3009,2362.3622 L -2977,2300.3622 L -2882,2304.3622 L -2844,2254.3622 L -2783,2236.3622 L -2722.1,2250.4622"
       style="fill:none;fill-opacity:1.0000000;fill-rule:evenodd;stroke:#0000f2;stroke-width:2.2000000;stroke-linecap:butt;stroke-linejoin:miter;stroke-miterlimit:4.0000000;stroke-dasharray:none;stroke-opacity:0.73333335" />
    <path
       style="fill:none;fill-opacity:1.0000000;fill-rule:evenodd;stroke:#0000f2;stroke-width:2.2000000;stroke-linecap:butt;stroke-linejoin:miter;stroke-miterlimit:4.0000000;stroke-dasharray:none;stroke-opacity:0.73333335"
       d="M -2158,1901.3622 L -2157,1846.3622 L -2138,1790.3622 L -2177,1707.3622 L -2177,1588.5527 L -2125.0476,1488.0289 L -2061.7143,1465.5051 L -1993.619,1419.1717 L -1927.4286,1476.886 L -1901.4286,1607.5051 L -1949,1714.3622 L -1928,1813.3622 L -1872,1860.3622 L -1799,1845.3622 L -1705,1895.3622 L -1701,1967.3622 L -1769,2036.3622 L -1805,2111.3622 L -1853,2140.3622 L -1926,2158.3622 L -1985,2127.3622 L -2084,2139.3622 L -2164,2114.3622 L -2257,2128.3622 L -2280,2081.3622 L -2323,2030.3622 L -2391,2017.3622 L -2413,1996.3622 L -2451,2052.3622 L -2497,2042.3622 L -2543,2107.3622 L -2598,2091.3622 L -2622,2039.3622 L -2610,2005.3622 L -2539,1960.3622 L -2466,1940.3622 L -2441,1894.3622 L -2442,1838.3622 L -2368,1800.3622 L -2339,1850.3622 L -2313,1912.3622 L -2233,1953.3622 L -2158,1901.3622"
       id="path3510"
       sodipodi:nodetypes="ccccccccccccccccccccccccccccccccccccccccccc"
       class="level" />
    <path
       class="level"
       sodipodi:nodetypes="cccccccccccccccccccccc"
       id="path3512"
       d="M -2367.5000,2357.3622 L -2310.0000,2344.3622 L -2247.0000,2301.3622 L -2173.0000,2294.3622 L -2084.0000,2262.3622 L -2001.0000,2266.3622 L -1953.0000,2319.3622 L -1884.0000,2331.3622 L -1828.0000,2380.3622 L -1787.0000,2511.3622 L -1813.0000,2585.3622 L -1889.0000,2593.3622 L -1937.0000,2524.3622 L -2003.0000,2512.3622 L -2024.0000,2456.3622 L -2081.0000,2430.3622 L -2157.0000,2472.3622 L -2219.0000,2466.3622 L -2321.0000,2519.3622 L -2425.0000,2496.3622 L -2456.0000,2445.3622 L -2367.5000,2357.3622"
       style="fill:none;fill-opacity:1.0000000;fill-rule:evenodd;stroke:#0000f2;stroke-width:2.2000000;stroke-linecap:butt;stroke-linejoin:miter;stroke-miterlimit:4.0000000;stroke-dasharray:none;stroke-opacity:0.73333335" />
    <path
       sodipodi:type="arc"
       style="opacity:1.0000000;fill:#ff1919;fill-opacity:0.71746033;fill-rule:nonzero;stroke:none;stroke-width:1.2000000;stroke-linecap:round;stroke-linejoin:round;stroke-miterlimit:4.0000000;stroke-dasharray:none;stroke-opacity:0.73333335"
       id="path3514"
       sodipodi:cx="-1350.5000"
       sodipodi:cy="1813.8622"
       sodipodi:rx="10.500000"
       sodipodi:ry="10.500000"
       d="M -1340.0000 1813.8622 A 10.500000 10.500000 0 1 1  -1361.0000,1813.8622 A 10.500000 10.500000 0 1 1  -1340.0000 1813.8622 z"
       class="target"
       transform="matrix(0.604002,-0.796983,0.796983,0.604002,-2947.683,-99.30060)" />
    <path
       sodipodi:type="arc"
       style="opacity:1.0000000;fill:#ff1919;fill-opacity:0.71746033;fill-rule:nonzero;stroke:none;stroke-width:1.2000000;stroke-linecap:round;stroke-linejoin:round;stroke-miterlimit:4.0000000;stroke-dasharray:none;stroke-opacity:0.73333335"
       id="path3516"
       sodipodi:cx="-1350.5000"
       sodipodi:cy="1813.8622"
       sodipodi:rx="10.500000"
       sodipodi:ry="10.500000"
       d="M -1340.0000 1813.8622 A 10.500000 10.500000 0 1 1  -1361.0000,1813.8622 A 10.500000 10.500000 0 1 1  -1340.0000 1813.8622 z"
       class="target"
       transform="matrix(0.604002,-0.796983,0.796983,0.604002,-2811.603,-430.9956)" />
    <path
       class="level"
       sodipodi:nodetypes="ccccccccccccccccc"
       id="path4244"
       d="M -3958,3405.3622 L -3917,3337.3622 L -3728,3356.3622 L -3617,3304.3622 L -3616,3079.3622 L -3555,3074.3622 L -3456,3148.3622 L -3388,3265.3622 L -3495,3356.3622 L -3522,3443.3622 L -3506,3529.3622 L -3573,3602.3622 L -3618,3513.3622 L -3735,3475.3622 L -3768,3526.3622 L -3830,3510.3622 L -3958,3405.3622"
       style="fill:none;fill-opacity:1.0000000;fill-rule:evenodd;stroke:#0000f2;stroke-width:2.2000000;stroke-linecap:butt;stroke-linejoin:miter;stroke-miterlimit:4.0000000;stroke-dasharray:none;stroke-opacity:0.73333335" />
    <path
       transform="matrix(0.604002,-0.796983,0.796983,0.604002,-3894.573,538.5744)"
       class="target"
       d="M -1340.0000 1813.8622 A 10.500000 10.500000 0 1 1  -1361.0000,1813.8622 A 10.500000 10.500000 0 1 1  -1340.0000 1813.8622 z"
       sodipodi:ry="10.500000"
       sodipodi:rx="10.500000"
       sodipodi:cy="1813.8622"
       sodipodi:cx="-1350.5000"
       id="path4246"
       style="opacity:1.0000000;fill:#ff1919;fill-opacity:0.71746033;fill-rule:nonzero;stroke:none;stroke-width:1.2000000;stroke-linecap:round;stroke-linejoin:round;stroke-miterlimit:4.0000000;stroke-dasharray:none;stroke-opacity:0.73333335"
       sodipodi:type="arc" />
    <path
       sodipodi:type="arc"
       style="opacity:1.0000000;fill:#ff1919;fill-opacity:0.71746033;fill-rule:nonzero;stroke:none;stroke-width:1.2000000;stroke-linecap:round;stroke-linejoin:round;stroke-miterlimit:4.0000000;stroke-dasharray:none;stroke-opacity:0.73333335"
       id="path4248"
       sodipodi:cx="-1350.5000"
       sodipodi:cy="1813.8622"
       sodipodi:rx="10.500000"
       sodipodi:ry="10.500000"
       d="M -1340.0000 1813.8622 A 10.500000 10.500000 0 1 1  -1361.0000,1813.8622 A 10.500000 10.500000 0 1 1  -1340.0000 1813.8622 z"
       class="target"
       transform="matrix(0.604002,-0.796983,0.796983,0.604002,-4356.678,1148.099)" />
    <path
       class="level"
       sodipodi:nodetypes="ccccccccccccccccccccccc"
       id="path4250"
       d="M -1653,2892.3622 L -1543,2792.3622 L -1614,2657.3622 L -1539,2638.3622 L -1451,2569.3622 L -1393,2635.3622 L -1415,2755.3622 L -1389,2875.3622 L -1263,2973.3622 L -1187,3062.3622 L -1216,3153.3622 L -1263,3239.3622 L -1235,3386.3622 L -1204,3480.3622 L -1240,3607.3622 L -1331,3647.3622 L -1365,3549.3622 L -1345,3402.3622 L -1465,3269.3622 L -1564,3282.3622 L -1651,3246.3622 L -1715,3048.3622 L -1653,2892.3622"
       style="fill:none;fill-opacity:1.0000000;fill-rule:evenodd;stroke:#0000f2;stroke-width:2.2000000;stroke-linecap:butt;stroke-linejoin:miter;stroke-miterlimit:4.0000000;stroke-dasharray:none;stroke-opacity:0.73333335" />
    <path
       class="level"
       sodipodi:nodetypes="cccccc"
       id="path4252"
       d="M -1665.1000,3540.4622 L -1604.1000,3499.4622 L -1521.1000,3545.4622 L -1534.1000,3597.4622 L -1603.1000,3606.4622 L -1665.1000,3540.4622"
       style="fill:none;fill-opacity:1.0000000;fill-rule:evenodd;stroke:#0000f2;stroke-width:2.2000000;stroke-linecap:butt;stroke-linejoin:miter;stroke-miterlimit:4.0000000;stroke-dasharray:none;stroke-opacity:0.73333335" />
    <path
       style="fill:none;fill-opacity:1.0000000;fill-rule:evenodd;stroke:#0000f2;stroke-width:2.2000000;stroke-linecap:butt;stroke-linejoin:miter;stroke-miterlimit:4.0000000;stroke-dasharray:none;stroke-opacity:0.73333335"
       d="M 1196.1,2067.4622 L 1209,2000.3622 L 1217.1488,1896.017 L 1261.4107,1817.9932 L 1349.0238,1788.7848 L 1442.625,1857.0467 L 1545.7798,1897.8801 L 1662.9405,1902.2372 L 1710.5715,1821.0765 L 1843,1862.3622 L 1931.381,1928.3622 L 2023.5714,2049.9812 L 2153.6667,2082.7432 L 2289.1429,2154.7907 L 2273.8571,2277.9336 L 2149.7143,2302.3622 L 2036.4286,2355.3145 L 1947.1429,2279.3146 L 1896.2857,2158.0289 L 1752.1429,2186.5051 L 1733.9048,2308.6003 L 1694.7143,2401.3145 L 1708.6667,2509.5051 L 1628.6191,2534.6956 L 1529.2381,2482.9336 L 1523.3333,2374.267 L 1447.2857,2317.267 L 1418.1905,2210.267 L 1357.3393,2174.1301 L 1284.6369,2213.4039 L 1197.5893,2182.7432 L 1196.1,2067.4622"
       id="path4254"
       sodipodi:nodetypes="cccccccccccccccccccccccccccccccc"
       class="level" />
    <path
       class="level"
       sodipodi:nodetypes="cccccccccccccccccccccccccc"
       id="path4256"
       d="M 2818,918.36218 L 2873,780.36218 L 2966,642.36218 L 3062.2222,658.25107 L 3140.6667,635.13996 L 3188.2222,704.36218 L 3114.7778,904.02885 L 3114.4445,1041.4733 L 3217.4444,1106.2511 L 3401.2222,1095.2511 L 3497.4444,1155.6955 L 3454.5556,1249.3622 L 3286.1111,1295.8066 L 3112.3333,1230.9178 L 3019.7778,1286.5844 L 2991.3333,1414.2511 L 2888.7778,1464.14 L 2896.1111,1654.9971 L 2789.8254,1695.7273 L 2646.7778,1634.8066 L 2662.7778,1472.5844 L 2690.3333,1349.6955 L 2610.8889,1262.4733 L 2645.5556,1149.4733 L 2791.2222,1087.14 L 2818,918.36218"
       style="fill:none;fill-opacity:1.0000000;fill-rule:evenodd;stroke:#0000f2;stroke-width:2.2000000;stroke-linecap:butt;stroke-linejoin:miter;stroke-miterlimit:4.0000000;stroke-dasharray:none;stroke-opacity:0.73333335" />
    <path
       transform="matrix(0.604002,-0.796983,0.796983,0.604002,2916.548,-1549.484)"
       class="target"
       d="M -1340,1813.8622 A 10.5,10.5 0 1 1 -1361,1813.8622 A 10.5,10.5 0 1 1 -1340,1813.8622 z"
       sodipodi:ry="10.5"
       sodipodi:rx="10.5"
       sodipodi:cy="1813.8622"
       sodipodi:cx="-1350.5"
       id="path4258"
       style="opacity:1;fill:#ff1919;fill-opacity:0.71746036;fill-rule:nonzero;stroke:none;stroke-width:1.20000005;stroke-linecap:round;stroke-linejoin:round;stroke-miterlimit:4;stroke-dasharray:none;stroke-opacity:0.73333333"
       sodipodi:type="arc" />
    <path
       style="fill:none;fill-opacity:1.0000000;fill-rule:evenodd;stroke:#0000f2;stroke-width:2.2000000;stroke-linecap:butt;stroke-linejoin:miter;stroke-miterlimit:4.0000000;stroke-dasharray:none;stroke-opacity:0.73333335"
       d="M 4262.0000,6376.3622 L 4321.0000,6313.3622 L 4336.0000,6243.3622 L 4421.0000,6233.3622 L 4484.0000,6251.3622 L 4508.0000,6364.3622 L 4576.0000,6394.3622 L 4596.0000,6449.3622 L 4553.0000,6485.3622 L 4479.0000,6447.3622 L 4412.0000,6461.3622 L 4322.0000,6431.3622 L 4262.0000,6376.3622"
       id="path4260"
       sodipodi:nodetypes="ccccccccccccc"
       class="level" />
    <path
       class="level"
       sodipodi:nodetypes="cccccccccccccc"
       id="path4262"
       d="M 4350.0000,6074.3622 L 4413.0000,6000.3622 L 4424.0000,5908.3622 L 4455.0000,5794.3622 L 4520.0000,5756.3622 L 4527.0000,5842.3622 L 4652.0000,5906.3622 L 4783.0000,5863.3622 L 4868.0000,5924.3622 L 4844.0000,5999.3622 L 4763.0000,6007.3622 L 4560.0000,6137.3622 L 4401.0000,6101.3622 L 4350.0000,6074.3622"
       style="fill:none;fill-opacity:1.0000000;fill-rule:evenodd;stroke:#0000f2;stroke-width:2.2000000;stroke-linecap:butt;stroke-linejoin:miter;stroke-miterlimit:4.0000000;stroke-dasharray:none;stroke-opacity:0.73333335" />
    <path
       sodipodi:type="arc"
       style="opacity:1.0000000;fill:#ff1919;fill-opacity:0.71746033;fill-rule:nonzero;stroke:none;stroke-width:1.2000000;stroke-linecap:round;stroke-linejoin:round;stroke-miterlimit:4.0000000;stroke-dasharray:none;stroke-opacity:0.73333335"
       id="path4264"
       sodipodi:cx="-1350.5000"
       sodipodi:cy="1813.8622"
       sodipodi:rx="10.500000"
       sodipodi:ry="10.500000"
       d="M -1340.0000 1813.8622 A 10.500000 10.500000 0 1 1  -1361.0000,1813.8622 A 10.500000 10.500000 0 1 1  -1340.0000 1813.8622 z"
       class="target"
       transform="matrix(0.604002,-0.796983,0.796983,0.604002,-5085.273,5046.224)" />
    <path
       class="level"
       sodipodi:nodetypes="cccccccccccccccccccccccccccccccccccccccccccccc"
       id="path2414"
       d="M 4391.0606,1293.6653 L 4493.7676,1378.9986 L 4718.4444,1447.4733 L 4828.6111,1447.9178 L 4862.8611,1528.6956 L 4755.4444,1670.5845 L 4570.2222,1732.9178 L 4518.6666,1895.3622 L 4408.2222,2036.6956 L 4272.1111,2073.6956 L 4055.7777,2211.4733 L 3854.4444,2242.2511 L 3712.5555,2399.2511 L 3732.3333,2594.0289 L 3567.2222,2718.14 L 3428.6666,2630.14 L 3253.3333,2597.0289 L 3129.3333,2711.0289 L 2907.3333,2780.0289 L 2795.3333,2675.0289 L 2650.3333,2650.0289 L 2506.3333,2741.0289 L 2256.3333,2722.0289 L 2080.9523,2631.0289 L 2101.9523,2502.8384 L 2283.4762,2447.6241 L 2408.3333,2320.0289 L 2434.3333,2220.0289 L 2663.3333,2176.0289 L 2877.3333,2219.0289 L 3209.3333,2084.0289 L 3253.7777,1830.8067 L 3142.1111,1733.14 L 3066.6666,1629.9178 L 3098.1666,1503.0289 L 3157.4444,1434.4733 L 3314.3889,1460.0845 L 3499.1111,1410.6956 L 3581.7777,1298.9733 L 3748.4444,1429.5845 L 4003.5455,1506.2107 L 4123.1616,1401.2411 L 4154.9091,1242.5744 L 4208.1313,1153.1703 L 4300.2424,1158.2107 L 4391.0606,1293.6653"
       style="fill:none;fill-opacity:0.75;fill-rule:evenodd;stroke:#0000f2;stroke-width:2.20000005;stroke-linecap:butt;stroke-linejoin:miter;stroke-miterlimit:4;stroke-dasharray:none;stroke-opacity:0.73333333" />
    <path
       style="fill:none;fill-opacity:1;fill-rule:evenodd;stroke:#0000f2;stroke-width:2.20000005;stroke-linecap:butt;stroke-linejoin:miter;stroke-miterlimit:4;stroke-dasharray:none;stroke-opacity:0.73333333"
       d="M 4997.4482,2409.443 L 4864.7559,2225.443 L 4723.7559,2177.4815 L 4721.2174,2075.6738 L 4787.7174,1967.8661 L 4942.679,1948.5199 L 5038.0251,1879.1738 L 5129.5251,1917.5199 L 5121.4867,2054.5584 L 5224.9867,2172.3661 L 5202.679,2295.1738 L 5353.0636,2416.193 L 5314.9867,2464.1353 L 5203.5636,2513.2122 L 5115.1597,2618.5199 L 5032.4963,2657.7122 L 4965.2174,2612.2892 L 4997.4482,2409.443"
       id="path2416"
       sodipodi:nodetypes="cccccccccccccccccc"
       class="level" />
    <path
       sodipodi:type="arc"
       style="opacity:1;fill:#ff1919;fill-opacity:0.71746036;fill-rule:nonzero;stroke:none;stroke-width:1.20000005;stroke-linecap:round;stroke-linejoin:round;stroke-miterlimit:4;stroke-dasharray:none;stroke-opacity:0.73333333"
       id="path2418"
       sodipodi:cx="-1350.5"
       sodipodi:cy="1813.8622"
       sodipodi:rx="10.5"
       sodipodi:ry="10.5"
       d="M -1340,1813.8622 A 10.5,10.5 0 1 1 -1361,1813.8622 A 10.5,10.5 0 1 1 -1340,1813.8622 z"
       class="target"
       transform="matrix(0.604002,-0.796983,0.796983,0.604002,4802.3918,655.21254)" />
    <path
       style="fill:none;fill-opacity:1;fill-rule:evenodd;stroke:#0000f2;stroke-width:2.20000005;stroke-linecap:butt;stroke-linejoin:miter;stroke-miterlimit:4;stroke-dasharray:none;stroke-opacity:0.73333333"
       d="M -4035.3939,7522.5864 L -4013.7174,7452.0864 L -3944.9821,7449.2335 L -3885.835,7413.4099 L -3829.6292,7465.8217 L -3865.5409,7568.2923 L -3839.688,7603.1159 L -3903.5997,7666.4394 L -3988.0997,7626.8217 L -4004.3939,7555.5864 L -4035.3939,7522.5864"
       id="path2420"
       sodipodi:nodetypes="ccccccccccc"
       class="level" />
    <path
       class="level"
       sodipodi:nodetypes="ccccccc"
       id="path2422"
       d="M -4008.0184,7235.7086 L -3958.7831,7150.5909 L -3855.1948,7152.4733 L -3839.636,7246.1203 L -3874.0772,7295.6498 L -3948.9596,7295.8262 L -4008.0184,7235.7086"
       style="fill:none;fill-opacity:1;fill-rule:evenodd;stroke:#0000f2;stroke-width:2.20000005;stroke-linecap:butt;stroke-linejoin:miter;stroke-miterlimit:4;stroke-dasharray:none;stroke-opacity:0.73333333" />
    <path
       style="fill:none;fill-opacity:1;fill-rule:evenodd;stroke:#0000f2;stroke-width:2.20000005;stroke-linecap:butt;stroke-linejoin:miter;stroke-miterlimit:4;stroke-dasharray:none;stroke-opacity:0.73333333"
       d="M -4226.7966,7384.8037 L -4071.6789,7305.5684 L -4012.2083,7357.4507 L -4073.1201,7393.7449 L -4101.6789,7465.3331 L -4144.2084,7471.3919 L -4226.7966,7384.8037"
       id="path2424"
       sodipodi:nodetypes="ccccccc"
       class="level" />
    <path
       class="level"
       sodipodi:nodetypes="cccccccc"
       id="path2426"
       d="M -4289.2401,7610.143 L -4254.7107,7498.5548 L -4189.6813,7553.9077 L -4127.593,7553.3783 L -4100.2695,7626.4371 L -4158.2401,7711.2606 L -4286.0636,7693.7901 L -4289.2401,7610.143"
       style="fill:none;fill-opacity:1;fill-rule:evenodd;stroke:#0000f2;stroke-width:2.20000005;stroke-linecap:butt;stroke-linejoin:miter;stroke-miterlimit:4;stroke-dasharray:none;stroke-opacity:0.73333333" />
    <path
       style="fill:none;fill-opacity:1;fill-rule:evenodd;stroke:#0000f2;stroke-width:2.20000005;stroke-linecap:butt;stroke-linejoin:miter;stroke-miterlimit:4;stroke-dasharray:none;stroke-opacity:0.73333333"
       d="M -3819.7831,7365.1204 L -3752.9008,7277.0615 L -3737.5478,7199.5321 L -3654.7683,7190.4733 L -3583.7536,7299.0615 L -3630.386,7344.4145 L -3647.6066,7445.6498 L -3760.7243,7425.238 L -3819.7831,7365.1204"
       id="path2428"
       sodipodi:nodetypes="ccccccccc"
       class="level" />
    <path
       style="fill:none;fill-opacity:1;fill-rule:evenodd;stroke:#0000f2;stroke-width:2.20000005;stroke-linecap:butt;stroke-linejoin:miter;stroke-miterlimit:4;stroke-dasharray:none;stroke-opacity:0.73333333"
       d="M -3775.6655,7568.0616 L -3747.0185,7518.238 L -3628.7243,7528.9439 L -3583.7537,7613.7674 L -3679.9596,7719.1792 L -3760.0478,7682.5027 L -3748.9596,7616.4144 L -3775.6655,7568.0616"
       id="path2430"
       sodipodi:nodetypes="cccccccc"
       class="level" />
    <path
       style="fill:none;fill-opacity:1;fill-rule:evenodd;stroke:#0000f2;stroke-width:2.20000005;stroke-linecap:butt;stroke-linejoin:miter;stroke-miterlimit:4;stroke-dasharray:none;stroke-opacity:0.73333333"
       d="M -3560.9596,7488.6498 L -3555.842,7403.5321 L -3469.9008,7331.8851 L -3366.1066,7454.9438 L -3409.3714,7566.238 L -3493.0773,7578.1792 L -3560.9596,7488.6498"
       id="path2432"
       sodipodi:nodetypes="ccccccc"
       class="level" />
    <path
       class="level"
       sodipodi:nodetypes="ccccccccc"
       id="path2434"
       d="M -4060.9596,7921.0028 L -4117.6067,7815.2968 L -4031.6655,7711.2969 L -3907.2831,7787.2968 L -3832.9008,7745.6498 L -3740.1361,7789.9439 L -3762.2538,7869.0322 L -3925.5479,7945.1792 L -4060.9596,7921.0028"
       style="fill:none;fill-opacity:1;fill-rule:evenodd;stroke:#0000f2;stroke-width:2.20000005;stroke-linecap:butt;stroke-linejoin:miter;stroke-miterlimit:4;stroke-dasharray:none;stroke-opacity:0.73333333" />
    <path
       style="fill:none;fill-opacity:1;fill-rule:evenodd;stroke:#0000f2;stroke-width:2.20000005;stroke-linecap:butt;stroke-linejoin:miter;stroke-miterlimit:4;stroke-dasharray:none;stroke-opacity:0.73333333"
       d="M -4316.842,7221.0027 L -4240.923,7157.3113 L -4188.1949,7053.532 L -4066.9595,7043.6497 L -4013.1654,7096.1202 L -4082.9008,7225.0615 L -4254.842,7292.885 L -4316.842,7221.0027"
       id="path2436"
       sodipodi:nodetypes="cccccccc"
       class="level" />
    <path
       style="fill:none;fill-opacity:1;fill-rule:evenodd;stroke:#0000f2;stroke-width:2.20000005;stroke-linecap:butt;stroke-linejoin:miter;stroke-miterlimit:4;stroke-dasharray:none;stroke-opacity:0.73333333"
       d="M -4013.9007,6988.6497 L -3958.7831,6909.4144 L -3834.6065,6884.8262 L -3743.2168,6928.0909 L -3657.7095,6941.9438 L -3654.5551,7088.1497 L -3780.8125,7110.8261 L -3859.3713,7066.238 L -3934.2537,7066.4144 L -4013.9007,6988.6497"
       id="path2438"
       sodipodi:nodetypes="cccccccccc"
       class="level" />
    <path
       style="fill:none;fill-opacity:1;fill-rule:evenodd;stroke:#0000f2;stroke-width:2.20000005;stroke-linecap:butt;stroke-linejoin:miter;stroke-miterlimit:4;stroke-dasharray:none;stroke-opacity:0.73333333"
       d="M -3558.0184,7115.1204 L -3549.9596,6980.0027 L -3396.3713,7011.2968 L -3288.5919,7237.5321 L -3333.7537,7334.3556 L -3453.9154,7204.7086 L -3515.2537,7239.7674 L -3587.1949,7137.0026 L -3558.0184,7115.1204"
       id="path2440"
       sodipodi:nodetypes="ccccccccc"
       class="level" />
    <path
       style="fill:none;fill-opacity:1;fill-rule:evenodd;stroke:#0000f2;stroke-width:2.20000005;stroke-linecap:butt;stroke-linejoin:miter;stroke-miterlimit:4;stroke-dasharray:none;stroke-opacity:0.73333333"
       d="M -3678.6066,7912.1792 L -3661.7243,7815.2968 L -3508.136,7670.1203 L -3413.1654,7657.885 L -3434.7978,7754.7085 L -3429.9595,7922.1204 L -3601.9008,7960.5321 L -3678.6066,7912.1792"
       id="path2442"
       sodipodi:nodetypes="cccccccc"
       class="level" />
    <path
       style="fill:none;fill-opacity:1;fill-rule:evenodd;stroke:#0000f2;stroke-width:2.20000005;stroke-linecap:butt;stroke-linejoin:miter;stroke-miterlimit:4;stroke-dasharray:none;stroke-opacity:0.73333333"
       d="M -4434.4889,7426.8851 L -4373.4889,7315.2968 L -4305.1948,7361.2969 L -4336.6948,7434.3556 L -4327.0183,7486.8263 L -4399.8713,7498.0322 L -4434.4889,7426.8851"
       id="path2444"
       sodipodi:nodetypes="ccccccc"
       class="level" />
    <path
       class="level"
       sodipodi:nodetypes="ccccccc"
       id="path2446"
       d="M -4293.3124,7900.4145 L -4294.0771,7782.9438 L -4187.5477,7796.591 L -4192.5771,7875.532 L -4135.8418,7975.0616 L -4202.8124,7983.3263 L -4293.3124,7900.4145"
       style="fill:none;fill-opacity:1;fill-rule:evenodd;stroke:#0000f2;stroke-width:2.20000005;stroke-linecap:butt;stroke-linejoin:miter;stroke-miterlimit:4;stroke-dasharray:none;stroke-opacity:0.73333333" />
    <path
       style="fill:none;fill-opacity:1;fill-rule:evenodd;stroke:#0000f2;stroke-width:2.20000005;stroke-linecap:butt;stroke-linejoin:miter;stroke-miterlimit:4;stroke-dasharray:none;stroke-opacity:0.73333333"
       d="M -4484.489,7668.0616 L -4423.489,7571.1792 L -4355.1948,7576.0028 L -4371.989,7643.1792 L -4359.3713,7748.591 L -4410.7243,7787.0027 L -4484.489,7668.0616"
       id="path2448"
       sodipodi:nodetypes="ccccccc"
       class="level" />
    <path
       style="fill:none;fill-opacity:1;fill-rule:evenodd;stroke:#0000f2;stroke-width:2.20000005;stroke-linecap:butt;stroke-linejoin:miter;stroke-miterlimit:4;stroke-dasharray:none;stroke-opacity:0.73333333"
       d="M -3340.3713,7626.8851 L -3291.136,7541.7674 L -3271.6948,7419.1792 L -3203.1507,7352.0027 L -3152.2536,7473.0616 L -3150.3565,7581.6497 L -3266.1065,7843.1792 L -3335.8419,7836.8263 L -3307.7831,7704.6498 L -3340.3713,7626.8851"
       id="path2450"
       sodipodi:nodetypes="cccccccccc"
       class="level" />
    <path
       style="fill:none;fill-opacity:1;fill-rule:evenodd;stroke:#0000f2;stroke-width:2.20000005;stroke-linecap:butt;stroke-linejoin:miter;stroke-miterlimit:4;stroke-dasharray:none;stroke-opacity:0.73333333"
       d="M -3088.238,4610.0765 L -3092.5476,4462.7194 L -2977.8095,4439.1717 L -2910.2381,4339.1717 L -2786.4762,4330.2717 L -2674.1428,4406.4574 L -2650.5714,4509.0765 L -2591.7619,4538.4574 L -2592.9524,4714.4574 L -2813.1428,4761.7432 L -2846.4286,4884.4574 L -2953.1905,4955.5527 L -3034.4048,4924.8384 L -2991.8095,4827.4575 L -2973.2857,4699.3622 L -3088.238,4610.0765"
       id="path2452"
       sodipodi:nodetypes="cccccccccccccccc"
       class="level" />
    <path
       transform="matrix(0.604002,-0.796983,0.796983,0.604002,-4009.059,1910.0038)"
       class="target"
       d="M -1340,1813.8622 A 10.5,10.5 0 1 1 -1361,1813.8622 A 10.5,10.5 0 1 1 -1340,1813.8622 z"
       sodipodi:ry="10.5"
       sodipodi:rx="10.5"
       sodipodi:cy="1813.8622"
       sodipodi:cx="-1350.5"
       id="path2454"
       style="opacity:1;fill:#ff1919;fill-opacity:0.71746036;fill-rule:nonzero;stroke:none;stroke-width:1.20000005;stroke-linecap:round;stroke-linejoin:round;stroke-miterlimit:4;stroke-dasharray:none;stroke-opacity:0.73333333"
       sodipodi:type="arc" />
    <path
       sodipodi:type="arc"
       style="opacity:1;fill:#ff1919;fill-opacity:0.71746036;fill-rule:nonzero;stroke:none;stroke-width:1.20000005;stroke-linecap:round;stroke-linejoin:round;stroke-miterlimit:4;stroke-dasharray:none;stroke-opacity:0.73333333"
       id="path2456"
       sodipodi:cx="-1350.5"
       sodipodi:cy="1813.8622"
       sodipodi:rx="10.5"
       sodipodi:ry="10.5"
       d="M -1340,1813.8622 A 10.5,10.5 0 1 1 -1361,1813.8622 A 10.5,10.5 0 1 1 -1340,1813.8622 z"
       class="target"
       transform="matrix(0.604002,-0.796983,0.796983,0.604002,-3918.5828,3205.2419)" />
    <path
       class="level"
       sodipodi:nodetypes="cccccccccccccccccccccccc"
       id="path2458"
       d="M 1352.4761,5143.0289 L 1349.5714,5037.1718 L 1407.4285,4967.1718 L 1516.2381,4990.5051 L 1619.1667,4904.267 L 1655.4285,4789.4574 L 1786.4761,4784.0527 L 1874.6667,4840.5527 L 1986.9047,4824.2432 L 1999.1428,4926.9813 L 2004.5714,5061.0289 L 2095.5237,5198.0527 L 2195.9999,5235.0765 L 2187.6309,5317.8861 L 2117.3571,5414.9813 L 2120.8928,5531.1242 L 2048.2381,5623.4575 L 1927.3571,5663.9575 L 1820.7618,5552.0765 L 1645.6666,5466.4099 L 1550.2619,5497.2194 L 1459.619,5361.3622 L 1436.2857,5202.7908 L 1352.4761,5143.0289"
       style="fill:none;fill-opacity:1;fill-rule:evenodd;stroke:#0000f2;stroke-width:2.20000005;stroke-linecap:butt;stroke-linejoin:miter;stroke-miterlimit:4;stroke-dasharray:none;stroke-opacity:0.73333333" />
    <path
       style="fill:none;fill-opacity:1;fill-rule:evenodd;stroke:#0000f2;stroke-width:2.20000005;stroke-linecap:butt;stroke-linejoin:miter;stroke-miterlimit:4;stroke-dasharray:none;stroke-opacity:0.73333333"
       d="M 2295.3333,4838.267 L 2235.2857,4699.0766 L 2355.0476,4652.886 L 2492.4285,4557.1718 L 2564.9523,4651.3622 L 2660.3809,4678.648 L 2766.4762,4813.4099 L 2753.1428,4977.9337 L 2672.0476,5104.4099 L 2521.8571,5066.4099 L 2345.3333,5066.1241 L 2250.5714,4969.4575 L 2295.3333,4838.267"
       id="path2460"
       sodipodi:nodetypes="ccccccccccccc"
       class="level" />
    <path
       class="level"
       sodipodi:nodetypes="cccccccccc"
       id="path2462"
       d="M 2957.2381,5100.1717 L 3044.8095,5046.6955 L 3059.8095,4943.3622 L 3179.2381,4975.1717 L 3212.7619,5045.3146 L 3271.2381,5118.1717 L 3243.6191,5187.4574 L 3110.1429,5228.2193 L 3017.2381,5155.1717 L 2957.2381,5100.1717"
       style="fill:none;fill-opacity:1;fill-rule:evenodd;stroke:#0000f2;stroke-width:2.20000005;stroke-linecap:butt;stroke-linejoin:miter;stroke-miterlimit:4;stroke-dasharray:none;stroke-opacity:0.73333333" />
    <path
       style="fill:none;fill-opacity:1;fill-rule:evenodd;stroke:#0000f2;stroke-width:2.20000005;stroke-linecap:butt;stroke-linejoin:miter;stroke-miterlimit:4;stroke-dasharray:none;stroke-opacity:0.73333333"
       d="M 4850.2281,6538.0067 L 4787.7995,6464.5305 L 4867.7995,6386.1972 L 4927.5138,6254.602 L 4897.2281,6123.0067 L 4975.7519,6118.1496 L 5029.2281,6261.0067 L 5053.1329,6381.0543 L 4995.2281,6478.0067 L 4850.2281,6538.0067"
       id="path2464"
       sodipodi:nodetypes="cccccccccc"
       class="level" />
    <path
       transform="matrix(0.604002,-0.796983,0.796983,0.604002,4225.3818,4123.0475)"
       class="target"
       d="M -1340,1813.8622 A 10.5,10.5 0 1 1 -1361,1813.8622 A 10.5,10.5 0 1 1 -1340,1813.8622 z"
       sodipodi:ry="10.5"
       sodipodi:rx="10.5"
       sodipodi:cy="1813.8622"
       sodipodi:cx="-1350.5"
       id="path2466"
       style="opacity:1;fill:#ff1919;fill-opacity:0.71746036;fill-rule:nonzero;stroke:none;stroke-width:1.20000005;stroke-linecap:round;stroke-linejoin:round;stroke-miterlimit:4;stroke-dasharray:none;stroke-opacity:0.73333333"
       sodipodi:type="arc" />
    <path
       sodipodi:type="arc"
       style="opacity:1;fill:#ff1919;fill-opacity:0.71746036;fill-rule:nonzero;stroke:none;stroke-width:1.20000005;stroke-linecap:round;stroke-linejoin:round;stroke-miterlimit:4;stroke-dasharray:none;stroke-opacity:0.73333333"
       id="path2468"
       sodipodi:cx="-1350.5"
       sodipodi:cy="1813.8622"
       sodipodi:rx="10.5"
       sodipodi:ry="10.5"
       d="M -1340,1813.8622 A 10.5,10.5 0 1 1 -1361,1813.8622 A 10.5,10.5 0 1 1 -1340,1813.8622 z"
       class="target"
       transform="matrix(0.604002,-0.796983,0.796983,0.604002,8217.0318,3169.9225)" />
  </g>
</svg>
